<?xml version="1.0" encoding="UTF-8" standalone="no"?>
<svg
   xmlns:dc="http://purl.org/dc/elements/1.1/"
   xmlns:cc="http://creativecommons.org/ns#"
   xmlns:rdf="http://www.w3.org/1999/02/22-rdf-syntax-ns#"
   xmlns:svg="http://www.w3.org/2000/svg"
   xmlns="http://www.w3.org/2000/svg"
   xmlns:sodipodi="http://sodipodi.sourceforge.net/DTD/sodipodi-0.dtd"
   xmlns:inkscape="http://www.inkscape.org/namespaces/inkscape"
   version="1.1"
   id="Capa_1"
   x="0px"
   y="0px"
   width="699.428px"
   height="699.428px"
   viewBox="0 0 699.428 699.428"
   style="enable-background:new 0 0 699.428 699.428;"
   xml:space="preserve"
   sodipodi:docname="copyblack.svg"
   inkscape:version="1.0.2-2 (e86c870879, 2021-01-15)"><metadata
   id="metadata44"><rdf:RDF><cc:Work
       rdf:about=""><dc:format>image/svg+xml</dc:format><dc:type
         rdf:resource="http://purl.org/dc/dcmitype/StillImage" /></cc:Work></rdf:RDF></metadata><defs
   id="defs42">
		
	</defs><sodipodi:namedview
   pagecolor="#ffffff"
   bordercolor="#666666"
   borderopacity="1"
   objecttolerance="10"
   gridtolerance="10"
   guidetolerance="10"
   inkscape:pageopacity="0"
   inkscape:pageshadow="2"
   inkscape:window-width="1920"
   inkscape:window-height="1053"
   id="namedview40"
   showgrid="false"
   inkscape:zoom="0.96078513"
   inkscape:cx="450.67309"
   inkscape:cy="394.78937"
   inkscape:window-x="-9"
   inkscape:window-y="-9"
   inkscape:window-maximized="1"
   inkscape:current-layer="g7"
   inkscape:document-rotation="0" />
<g
   id="g7">
	<g
   id="g4">
			<path
   style="color:#000000;font-style:normal;font-variant:normal;font-weight:normal;font-stretch:normal;font-size:medium;line-height:normal;font-family:sans-serif;font-variant-ligatures:normal;font-variant-position:normal;font-variant-caps:normal;font-variant-numeric:normal;font-variant-alternates:normal;font-variant-east-asian:normal;font-feature-settings:normal;font-variation-settings:normal;text-indent:0;text-align:start;text-decoration:none;text-decoration-line:none;text-decoration-style:solid;text-decoration-color:#000000;letter-spacing:normal;word-spacing:normal;text-transform:none;writing-mode:lr-tb;direction:ltr;text-orientation:mixed;dominant-baseline:auto;baseline-shift:baseline;text-anchor:start;white-space:normal;shape-padding:0;shape-margin:0;inline-size:0;clip-rule:nonzero;display:inline;overflow:visible;visibility:visible;isolation:auto;mix-blend-mode:normal;color-interpolation:sRGB;color-interpolation-filters:linearRGB;solid-color:#000000;solid-opacity:1;vector-effect:none;fill:#000000;fill-opacity:1;fill-rule:nonzero;stroke-width:1;stroke-linecap:butt;stroke-linejoin:miter;stroke-miterlimit:4;stroke-dasharray:none;stroke-dashoffset:0;stroke-opacity:1;color-rendering:auto;image-rendering:auto;shape-rendering:auto;text-rendering:auto;enable-background:accumulate;stop-color:#000000;stop-opacity:1;stroke:none;opacity:1"
   d="M 502.714,0 H 240.428 C 194.178,0 153,42.425 153,87.429 l -25.267,0.59 c -46.228,0 -84.019,41.834 -84.019,86.838 V 612 c 0,45.004 41.179,87.428 87.429,87.428 H 459 c 46.249,0 87.428,-42.424 87.428,-87.428 h 21.857 c 46.25,0 87.429,-42.424 87.429,-87.428 V 175.382 Z M 459,655.715 H 131.143 c -22.95,0 -43.714,-21.441 -43.714,-43.715 V 174.857 c 0,-22.272 18.688,-42.993 41.638,-42.993 L 153,131.143 V 524.572 C 153,569.576 194.178,612 240.428,612 h 262.286 c 0,22.273 -20.765,43.715 -43.714,43.715 z M 612,524.572 c 0,22.271 -20.765,43.713 -43.715,43.713 H 240.428 c -22.95,0 -43.714,-21.441 -43.714,-43.713 V 87.429 c 0,-22.272 20.764,-43.714 43.714,-43.714 H 459 c -0.351,50.337 0,87.975 0,87.975 0,45.419 40.872,86.882 87.428,86.882 H 612 Z M 546.428,174.857 c -23.277,0 -43.714,-42.293 -43.714,-64.981 V 44.392 44.348 L 612,174.857 Z M 502.714,306.394 H 306 c -12.065,0 -21.857,9.77 -21.857,21.835 0,12.065 9.792,21.835 21.857,21.835 h 196.714 c 12.065,0 21.857,-9.771 21.857,-21.835 0,-12.065 -9.792,-21.835 -21.857,-21.835 z m 0,109.176 H 306 c -12.065,0 -21.857,9.77 -21.857,21.834 0,12.066 9.792,21.836 21.857,21.836 h 196.714 c 12.065,0 21.857,-9.77 21.857,-21.836 0,-12.064 -9.792,-21.834 -21.857,-21.834 z"
   id="path2" />
		</g>
<path
   style="fill:#fefefe;fill-opacity:1;stroke-width:3.93379;stroke-linecap:round;stroke-linejoin:round;stop-color:#000000"
   d="m 228.96581,565.6989 c -12.50061,-4.33784 -22.21568,-13.08384 -27.98707,-25.19537 l -3.2238,-6.7653 -0.27698,-225.33655 c -0.27419,-223.066072 -0.25592,-225.406062 1.81322,-232.236398 3.80684,-12.566594 14.57989,-24.127483 27.37844,-29.380652 5.42265,-2.225732 5.63158,-2.230158 118.56614,-2.512244 l 113.13392,-0.282583 0.36205,50.762132 c 0.3492,48.961065 0.44426,51.032265 2.67919,58.375695 7.56963,24.87185 25.55991,45.99792 48.58865,57.05791 16.60569,7.9752 16.92019,8.0183 61.68471,8.45308 l 39.82757,0.38683 -0.27659,157.35639 -0.27659,157.35639 -3.21231,6.7653 c -4.71059,9.92077 -12.48349,17.89064 -22.06893,22.62818 l -7.91638,3.91261 -171.78879,0.23258 c -160.87814,0.21781 -172.12017,0.11759 -177.00645,-1.578 z M 512.38287,457.33361 c 14.28902,-7.34993 16.92705,-25.0333 5.40637,-36.24025 -1.89931,-1.84758 -5.13152,-3.95523 -7.1827,-4.68367 -5.445,-1.93369 -207.05447,-1.93369 -212.49948,0 -2.05118,0.72844 -5.28339,2.83609 -7.18269,4.68367 -11.58451,11.26904 -8.83571,28.84627 5.70803,36.50001 2.78298,1.46456 14.47086,1.64774 107.50566,1.68488 100.71503,0.0402 104.51892,-0.0281 108.24481,-1.94464 z m -1.15004,-108.40396 c 1.61151,-0.60756 4.50939,-2.59812 6.43974,-4.42346 11.65171,-11.01786 9.0498,-28.82394 -5.2897,-36.19982 -3.72409,-1.91559 -7.57068,-1.98632 -108.02607,-1.98632 -100.45538,0 -104.30198,0.0707 -108.02607,1.98632 -13.94815,7.17459 -16.88414,24.04658 -6.15067,35.34552 6.33115,6.66468 -0.26807,6.29709 113.84878,6.34167 71.09495,0.0278 105.20629,-0.31075 107.20399,-1.06391 z"
   id="path852" /><path
   style="fill:#fefefe;fill-opacity:1;stroke-width:3.93379;stroke-linecap:round;stroke-linejoin:round;stop-color:#000000"
   d="m 537.06077,171.64307 c -11.01353,-5.23385 -23.23564,-22.01192 -29.75262,-40.84335 l -3.55249,-10.26522 -0.32124,-37.306228 -0.32125,-37.306225 6.08433,7.122577 c 3.34638,3.917417 26.62941,31.711842 51.74006,61.765386 25.11064,30.05355 46.60249,55.69664 47.75963,56.98465 l 2.10393,2.34183 -34.26814,-0.0104 c -33.91198,-0.0104 -34.32222,-0.0359 -39.47221,-2.48325 z"
   id="path854" /><path
   style="fill:#fefefe;fill-opacity:1;stroke-width:3.93379;stroke-linecap:round;stroke-linejoin:round;stop-color:#000000"
   d="M 119.68019,653.1274 C 107.17958,648.78956 97.464509,640.04356 91.693117,627.93202 l -3.223803,-6.7653 V 393.22814 165.28956 l 3.33212,-7.03438 c 4.381996,-9.25075 12.374276,-17.61293 20.796836,-21.75934 5.90275,-2.90591 8.05893,-3.35056 19.8686,-4.0973 7.28601,-0.46071 14.76949,-0.85966 16.62994,-0.88657 l 3.38265,-0.0489 v 199.745 c 0,168.47289 0.232,200.95753 1.48181,207.48973 5.58396,29.18471 28.13542,56.32981 56.30759,67.77719 14.8014,6.01434 10.24139,5.84481 157.2133,5.84481 h 134.94765 l -0.70529,4.94388 c -1.88589,13.21977 -12.23595,26.82355 -25.33272,33.29654 l -7.91638,3.91261 -171.78878,0.23258 c -160.87814,0.21781 -172.12017,0.11759 -177.00645,-1.578 z"
   id="path856" /></g>
<g
   id="g9">
</g>
<g
   id="g11">
</g>
<g
   id="g13">
</g>
<g
   id="g15">
</g>
<g
   id="g17">
</g>
<g
   id="g19">
</g>
<g
   id="g21">
</g>
<g
   id="g23">
</g>
<g
   id="g25">
</g>
<g
   id="g27">
</g>
<g
   id="g29">
</g>
<g
   id="g31">
</g>
<g
   id="g33">
</g>
<g
   id="g35">
</g>
<g
   id="g37">
</g>
</svg>
